<svg width="258" height="65" viewBox="0 0 258 65" fill="none" xmlns="http://www.w3.org/2000/svg">
  <path d="M55.655 26.96C58.255 26.96 62.155 28.78 62.155 29.95C62.155 30.795 61.7 31.445 61.375 31.64C61.115 31.835 60.725 31.835 60.075 31.705C59.295 31.575 56.63 31.38 55.525 31.38C53.9 31.38 49.48 31.51 47.14 31.575V39.96C47.14 42.235 47.27 48.15 47.4 50.1C47.465 50.945 45.775 51.855 44.215 51.855C43.37 51.855 42.59 51.205 42.59 50.62C42.59 50.035 42.655 46.33 42.72 44.185C42.85 40.415 42.915 18.315 42.915 8.695C42.915 7.72 42.85 6.03 42.785 5.77C42.33 4.665 39.535 3.17 38.17 2.715C37.78 2.585 37.455 2.52 37.26 2.585C36.935 2.715 36.675 2.585 36.675 2.325C36.675 1.74 37.455 0.375 38.04 0.375C41.55 0.375 48.44 2.715 48.115 3.43C47.92 3.885 47.66 5.835 47.53 7.265C47.27 10.06 47.205 20.005 47.14 28.455C48.7 28.455 51.235 28.26 52.34 28.065C53.055 27.935 54.29 27.545 54.875 27.22C55.265 27.025 55.46 26.96 55.655 26.96ZM11 12.79C9.83001 12.595 7.94501 8.5 9.05001 8.76C11.26 9.28 19.125 9.345 21.075 8.89C21.92 8.695 22.7 8.435 23.22 8.11C23.415 7.98 23.675 7.915 23.87 7.915C25.365 7.915 28.03 10.19 28.03 11.165C28.03 12.01 27.575 12.725 26.925 12.79C23.025 13.18 13.145 13.115 11 12.79ZM28.745 21.175C25.43 21.045 12.495 21.565 9.57001 21.955C8.53001 22.085 6.38501 22.41 5.67001 22.67C5.47501 22.735 5.21501 22.8 5.02001 22.8C3.78501 22.8 0.53501 19.875 0.34001 18.965C0.27501 18.705 0.27501 18.25 0.34001 17.99C0.40501 17.73 0.66501 17.665 0.86001 17.795C1.12001 17.99 1.96501 18.185 2.35501 18.25C5.86501 18.835 26.015 17.99 27.835 17.73C28.875 17.6 30.175 17.405 30.565 17.275C30.955 17.145 31.215 17.08 31.41 17.08C33.1 17.08 36.675 19.225 36.675 20.2C36.675 20.85 36.35 21.435 35.96 21.63C35.7 21.76 35.505 21.76 34.985 21.63C34.14 21.435 30.89 21.24 28.745 21.175ZM30.63 33.915C30.63 39.44 25.885 43.21 19.32 43.21C12.69 43.21 8.01001 39.44 8.01001 33.915C8.01001 28.455 12.69 24.62 19.32 24.62C25.885 24.62 30.63 28.455 30.63 33.915ZM19.32 39.895C23.48 39.895 26.145 37.425 26.145 33.915C26.145 30.405 23.48 28 19.32 28C15.095 28 12.495 30.405 12.495 33.915C12.495 37.425 15.095 39.895 19.32 39.895ZM48.96 57.575C51.04 57.575 55.395 59.655 55.395 60.63C55.395 61.28 55.07 61.93 54.68 62.19C54.485 62.32 54.225 62.32 53.835 62.255C53.445 62.19 50.455 62.06 48.7 62.06C46.425 62.06 34.335 62.58 31.345 62.645C26.925 62.71 24.26 60.5 24.195 57.77C24.13 55.82 23.805 51.79 23.415 50.36C23.22 49.71 22.505 49.125 21.725 48.735C21.335 48.54 21.01 48.41 20.815 48.475C20.62 48.54 20.425 48.475 20.425 48.28C20.425 47.76 21.075 46.655 21.595 46.655C23.87 46.655 28.68 48.215 28.615 48.93L28.42 50.945C28.355 52.245 28.355 56.275 28.55 57.51C28.68 58.355 29.72 59.005 31.28 59.07C34.075 59.2 41.94 58.875 44.995 58.485C46.035 58.355 47.66 57.965 48.31 57.705C48.635 57.575 48.765 57.575 48.96 57.575Z" fill="black"/>
  <path d="M84.19 10.58C82.89 10.58 79.38 7.525 79.12 6.55C79.055 6.29 79.055 5.835 79.12 5.575C79.185 5.315 79.445 5.25 79.64 5.38C79.835 5.51 80.29 5.64 80.615 5.705C84.775 6.55 103.43 5.575 105.25 4.86C105.575 4.73 105.835 4.665 105.965 4.665C107.915 4.665 111.36 6.55 111.36 7.265C111.36 7.525 111.165 8.11 111.035 8.63C110.255 13.245 107.525 19.94 105.64 22.41C105.315 22.865 105.12 22.995 104.73 22.995C103.82 22.995 102.715 22.41 102.715 22.085C102.715 21.955 102.715 21.89 102.91 21.435C103.69 19.42 105.38 12.14 105.705 8.565C102.455 8.63 91.795 9.345 89.325 9.67C87.765 9.865 85.295 10.255 84.71 10.45C84.515 10.515 84.32 10.58 84.19 10.58ZM118.315 25.595C120.785 25.595 126.05 28.065 126.05 29.3C126.05 29.95 125.79 30.535 125.4 30.86C125.075 31.12 124.75 31.12 124.165 30.99C122.865 30.73 119.355 30.34 116.56 30.21C108.045 29.82 81.33 31.12 77.69 31.445C75.61 31.64 72.035 32.095 71.32 32.29C71.06 32.355 70.8 32.42 70.605 32.42C69.24 32.42 65.08 29.04 64.95 28.065C64.885 27.48 64.95 26.895 65.015 26.635C65.08 26.31 65.275 26.18 65.47 26.44C65.665 26.765 66.77 27.025 67.485 27.155C73.855 28.325 111.295 26.635 113.895 26.375C115.195 26.245 116.885 25.92 117.6 25.725C118.12 25.595 118.185 25.595 118.315 25.595ZM110.515 58.55C112.4 58.55 116.17 60.5 116.17 61.54C116.17 62.255 115.91 62.71 115.52 62.97C115.325 63.1 115.13 63.1 114.675 63.035C113.96 62.905 111.1 62.84 109.735 62.84C106.94 62.84 93.485 63.295 90.56 63.36C85.49 63.49 83.93 61.8 83.8 59.005C83.735 57.965 83.67 54.195 83.605 52.44C82.565 51.79 81.135 50.555 81.005 49.97C80.94 49.71 80.94 49.45 81.005 49.19C81.07 48.93 81.33 48.865 81.525 48.995C81.72 49.125 82.37 49.255 83.02 49.32C86.725 49.71 102.65 49.125 103.885 48.995C104.21 48.93 104.535 48.93 104.86 48.865C105.055 47.175 105.25 43.275 105.315 41.78C101.87 41.78 92.185 42.235 89.845 42.495C88.74 42.625 86.725 42.95 85.945 43.21C85.75 43.275 85.555 43.34 85.425 43.34C84.125 43.34 80.875 40.74 80.615 39.765C80.55 39.505 80.55 39.05 80.615 38.79C80.68 38.53 80.94 38.465 81.135 38.595C81.33 38.725 81.785 38.855 82.11 38.92C85.685 39.635 102.39 38.985 104.535 38.27C104.925 38.14 105.12 38.075 105.25 38.075C107.07 38.075 110.58 39.765 110.58 40.545C110.58 40.935 110.19 41.65 110.06 42.105C109.67 43.795 108.695 47.695 108.24 48.93C109.41 49.58 110.645 50.49 110.645 51.01C110.645 51.595 110.125 52.115 109.735 52.05C109.28 51.985 107.72 51.985 106.745 51.985C103.43 51.985 91.665 52.245 87.96 52.44C87.895 54.52 87.895 58.225 88.025 58.875C88.155 59.72 88.675 59.98 90.365 60.045C92.25 60.11 104.795 59.655 106.615 59.395C107.655 59.265 109.02 58.94 109.8 58.68C110.19 58.55 110.32 58.55 110.515 58.55Z" fill="black"/>
  <path d="M144.575 16.3C143.925 16.3 140.805 13.765 140.675 13.245C140.61 12.92 140.61 12.335 140.675 12.14C140.74 11.88 141 11.815 141.195 11.945C141.39 12.075 142.105 12.205 142.495 12.27C146.33 12.92 164.14 12.27 166.35 11.945C167.26 11.815 168.43 11.555 168.95 11.36C169.47 11.165 169.6 11.165 169.795 11.165C171.745 11.165 175.905 12.92 175.905 13.765C175.905 14.415 175.645 15 175.32 15.26C175.06 15.455 174.8 15.52 174.28 15.455C170.51 15 154.91 15.455 149.45 15.845C149.385 19.68 149.385 29.625 149.515 30.275C149.645 30.925 150.23 31.315 151.66 31.38C153.805 31.51 164.725 31.185 167.13 30.86C168.17 30.73 169.535 30.47 170.185 30.21C170.64 30.015 170.835 29.95 171.03 29.95C173.045 29.95 177.01 31.835 177.01 32.68C177.01 33.395 176.685 33.98 176.295 34.24C176.1 34.37 175.84 34.37 175.385 34.305C174.605 34.175 172.59 34.11 171.095 34.11C168.365 34.11 155.04 34.565 151.855 34.63C147.175 34.695 145.29 32.81 145.16 30.275C145.095 29.105 144.965 20.33 144.965 16.3H144.575ZM183.315 48.8C185.785 48.8 191.05 51.27 191.05 52.505C191.05 53.155 190.79 53.74 190.4 54.065C190.075 54.325 189.75 54.325 189.165 54.195C187.865 53.935 184.355 53.545 181.56 53.415C173.045 53.025 146.33 54.325 142.69 54.65C140.61 54.845 137.035 55.3 136.32 55.495C136.06 55.56 135.8 55.625 135.605 55.625C134.24 55.625 130.08 52.245 129.95 51.27C129.885 50.685 129.95 50.1 130.015 49.84C130.08 49.515 130.275 49.385 130.47 49.645C130.665 49.97 131.77 50.23 132.485 50.36C135.8 50.945 147.565 50.815 158.485 50.49C158.42 47.695 158.29 41.065 158.095 40.35C157.9 39.765 157.185 38.985 156.73 38.855C156.34 38.725 157.055 37.555 157.575 37.555C159.395 37.555 163.23 39.245 163.1 39.765C162.97 40.35 162.905 40.87 162.84 41.39C162.71 42.365 162.58 47.825 162.515 50.36C170.835 50.035 177.855 49.71 178.895 49.58C180.195 49.45 181.885 49.125 182.6 48.93C183.12 48.8 183.185 48.8 183.315 48.8Z" fill="black"/>
  <path d="M250.655 23.84C253.255 23.84 257.155 25.66 257.155 26.83C257.155 27.675 256.7 28.325 256.375 28.52C256.115 28.715 255.725 28.715 255.075 28.585C254.295 28.455 251.63 28.26 250.525 28.26C248.9 28.26 244.48 28.39 242.14 28.455C242.14 30.405 242.27 35.215 242.4 37.1C242.465 37.945 240.775 38.855 239.215 38.855C238.37 38.855 237.59 38.205 237.59 37.62L237.72 31.575C237.785 28.325 237.915 14.48 237.915 8.695C237.915 7.72 237.85 6.03 237.785 5.77C237.33 4.665 234.535 3.17 233.17 2.715C232.78 2.585 232.455 2.52 232.26 2.585C231.935 2.715 231.675 2.585 231.675 2.325C231.675 1.74 232.455 0.375 233.04 0.375C236.55 0.375 243.44 2.715 243.115 3.43C242.92 3.885 242.66 5.835 242.53 7.265C242.335 9.865 242.205 19.68 242.14 25.335C243.7 25.335 246.235 25.14 247.34 24.945C248.055 24.815 249.29 24.425 249.875 24.1C250.265 23.905 250.46 23.84 250.655 23.84ZM227.45 16.365C224.07 25.66 208.665 38.66 198.135 41.65C197.42 41.845 197.095 41.91 196.835 41.91C196.25 41.91 195.275 40.87 195.275 40.415C195.275 40.155 195.34 40.025 195.925 39.765C204.115 36.84 218.935 23.97 222.25 15.975C219.325 16.04 211.2 16.625 209.12 16.885C208.015 17.015 206 17.405 205.35 17.665C205.155 17.73 204.83 17.795 204.635 17.795C203.465 17.795 200.02 14.935 199.825 14.09C199.76 13.83 199.76 13.375 199.825 13.115C199.89 12.855 200.15 12.79 200.345 12.92C200.54 13.05 200.995 13.18 201.32 13.245C204.375 13.83 219.195 13.18 221.535 12.465C221.99 12.335 222.185 12.335 222.38 12.335C224.2 12.335 228.035 14.155 228.035 14.935C228.035 15.195 227.58 15.975 227.45 16.365ZM240.19 57.835C241.75 58.55 243.96 59.915 243.96 60.5C243.96 61.15 243.505 61.735 243.05 61.67C242.53 61.605 240.97 61.54 239.865 61.54C237.2 61.54 225.89 61.8 221.99 61.93C221.535 62.84 220.235 64.335 219.455 64.335C218.74 64.335 218.22 63.88 218.22 63.425C218.22 62.32 217.115 46.005 216.595 44.38C216.335 43.795 215.23 43.015 214.58 42.625C214.255 42.43 213.995 42.3 213.865 42.365C213.735 42.43 213.54 42.365 213.54 42.17C213.54 41.715 214.125 40.805 214.645 40.805C215.88 40.805 218.805 41.52 220.365 42.105C224.395 42.105 235.575 41.585 237.005 41C237.33 40.87 237.59 40.805 237.72 40.805C239.67 40.805 243.05 42.56 243.05 43.405C243.05 43.795 242.725 44.575 242.66 45.03C242.205 47.955 240.905 55.3 240.19 57.835ZM221.99 58.55C225.305 58.485 234.47 58.29 236.225 58.095C236.42 58.095 236.615 58.03 236.81 58.03C237.07 54.845 237.525 47.37 237.655 44.77C234.34 44.705 225.89 45.095 221.47 45.355C221.6 48.93 221.795 54.975 221.99 58.55Z" fill="black"/>
  </svg>
  